# xmcd
# Copyright (C) 1995-1998 Ti Kan
#
# Track frame offsets:
#       150
#       18510
#       45152
#       65189
#
# Disc length: 1549 seconds
#
# Revision: 0
# Processed by: cddbd v1.5.2PL0 Copyright (c) Steve Scherf et al.
# Submitted via: CD-Import v1.0
#
DISCID=2d060b04
DTITLE=Aufgang - 
DYEAR=2010
DGENRE=
TTITLE0=Barock (Edit)
TTITLE1=Barock (Robert Hood Remix)
TTITLE2=Barock (Mondkopf Remix)
TTITLE3=Barock (Wareika Remix)
EXTD=
EXTT0=
EXTT1=
EXTT2=
EXTT3=
PLAYORDER=
